<?xml version="1.0" encoding="UTF-8"?>
<svg id="_レイヤー_2" data-name="レイヤー 2" xmlns="http://www.w3.org/2000/svg" width="228.02" height="228.02" viewBox="0 0 228.02 228.02">
  <defs>
    <style>
      .cls-1 {
        stroke: #231815;
      }

      .cls-1, .cls-2 {
        fill: none;
        stroke-linecap: round;
        stroke-linejoin: round;
        stroke-width: 2.5px;
      }

      .cls-3 {
        fill: #badcf4;
      }

      .cls-3, .cls-4, .cls-5, .cls-6, .cls-7 {
        stroke-width: 0px;
      }

      .cls-4 {
        fill: #a7e099;
      }

      .cls-2 {
        stroke: #fff;
      }

      .cls-5 {
        fill: #fff;
      }

      .cls-6 {
        fill: #dbdcdc;
      }

      .cls-7 {
        fill: #6bde4e;
      }
    </style>
  </defs>
  <g id="_レイヤー_1-2" data-name="レイヤー 1">
    <g>
      <circle class="cls-7" cx="114.01" cy="114.01" r="114.01"/>
      <g>
        <path class="cls-6" d="M66.11,166.55c-9.46,0-17.16-7.7-17.16-17.16s7.7-17.16,17.16-17.16,17.16,7.7,17.16,17.16-7.7,17.16-17.16,17.16Z"/>
        <path class="cls-6" d="M172.61,166.55c-9.46,0-17.16-7.7-17.16-17.16s7.7-17.16,17.16-17.16,17.16,7.7,17.16,17.16-7.7,17.16-17.16,17.16Z"/>
        <circle class="cls-3" cx="66.11" cy="149.39" r="7.51"/>
        <circle class="cls-3" cx="172.61" cy="149.39" r="7.51"/>
        <path class="cls-3" d="M24.38,129.04h6.79c.34,0,.61.27.61.61v10.39c0,.34-.27.61-.61.61h-7.14l.35-11.61Z"/>
        <path class="cls-4" d="M66.11,166.55c-9.46,0-17.16-7.7-17.16-17.16s7.7-17.16,17.16-17.16,17.16,7.7,17.16,17.16-7.7,17.16-17.16,17.16Z"/>
        <path class="cls-4" d="M172.61,166.55c-9.46,0-17.16-7.7-17.16-17.16s7.7-17.16,17.16-17.16,17.16,7.7,17.16,17.16-7.7,17.16-17.16,17.16Z"/>
        <path class="cls-3" d="M204.29,150.77c0,1.86-1.51,3.37-3.37,3.37h-7.41c.35-1.53.55-3.11.55-4.75,0-11.83-9.62-21.45-21.45-21.45s-21.45,9.62-21.45,21.45c0,1.63.2,3.22.55,4.75h-64.68c.35-1.53.55-3.11.55-4.75,0-11.83-9.62-21.45-21.45-21.45s-21.45,9.62-21.45,21.45c0,1.63.2,3.22.55,4.75h-18.11c-.92,0-1.78-.36-2.42-1.02-.64-.66-.98-1.53-.95-2.45l.17-5.73h7.27c2.7,0,4.9-2.2,4.9-4.9v-10.39c0-2.7-2.2-4.9-4.9-4.9h-6.53c1.1-7.84,6.68-14.29,14.47-16.41l24.71-6.73c.5-.14.93-.44,1.22-.87l18.43-27.34c5.03-7.47,13.42-11.93,22.42-11.93h40.24c14.04,0,26.98,8.2,32.98,20.89l11.15,23.61c.29.62.86,1.06,1.53,1.19,7.25,1.4,12.51,7.78,12.51,15.16v28.45Z"/>
        <path class="cls-3" d="M127.45,102.9h-46.47l14.66-22.81c2.3-3.58,6.22-5.72,10.47-5.72h21.34v28.53Z"/>
        <circle class="cls-5" cx="66.11" cy="149.39" r="7.51"/>
        <circle class="cls-5" cx="172.61" cy="149.39" r="7.51"/>
        <path class="cls-5" d="M24.38,129.04h6.79c.34,0,.61.27.61.61v10.39c0,.34-.27.61-.61.61h-7.14l.35-11.61Z"/>
        <path class="cls-5" d="M204.29,150.77c0,1.86-1.51,3.37-3.37,3.37h-7.41c.35-1.53.55-3.11.55-4.75,0-11.83-9.62-21.45-21.45-21.45s-21.45,9.62-21.45,21.45c0,1.63.2,3.22.55,4.75h-64.68c.35-1.53.55-3.11.55-4.75,0-11.83-9.62-21.45-21.45-21.45s-21.45,9.62-21.45,21.45c0,1.63.2,3.22.55,4.75h-18.11c-.92,0-1.78-.36-2.42-1.02-.64-.66-.98-1.53-.95-2.45l.17-5.73h7.27c2.7,0,4.9-2.2,4.9-4.9v-10.39c0-2.7-2.2-4.9-4.9-4.9h-6.53c1.1-7.84,6.68-14.29,14.47-16.41l24.71-6.73c.5-.14.93-.44,1.22-.87l18.43-27.34c5.03-7.47,13.42-11.93,22.42-11.93h40.24c14.04,0,26.98,8.2,32.98,20.89l11.15,23.61c.29.62.86,1.06,1.53,1.19,7.25,1.4,12.51,7.78,12.51,15.16v28.45Z"/>
        <path class="cls-7" d="M127.45,102.9h-46.47l14.66-22.81c2.3-3.58,6.22-5.72,10.47-5.72h21.34v28.53Z"/>
        <path class="cls-7" d="M142.77,102.9v-28.53h.84c9.77,0,18.79,5.7,22.98,14.53l6.64,14h-30.46Z"/>
        <g>
          <circle class="cls-1" cx="66.11" cy="149.39" r="19.31" transform="translate(-88.78 97.46) rotate(-47.59)"/>
          <circle class="cls-1" cx="66.11" cy="149.39" r="9.65"/>
          <circle class="cls-1" cx="172.61" cy="149.39" r="19.31" transform="translate(-43.83 76.81) rotate(-22.34)"/>
          <circle class="cls-1" cx="172.61" cy="149.39" r="9.65"/>
          <line class="cls-1" x1="154.57" y1="156.29" x2="84.15" y2="156.29"/>
          <path class="cls-1" d="M48.07,156.29h-20.98c-3.11,0-5.61-2.57-5.51-5.68l.71-23.71c.29-9.7,6.89-18.07,16.25-20.63l24.71-6.74,18.43-27.34c5.43-8.05,14.5-12.87,24.2-12.87h40.24c14.94,0,28.54,8.62,34.92,22.12l11.15,23.61h0c8.27,1.6,14.24,8.84,14.24,17.27v28.45c0,3.05-2.47,5.52-5.52,5.52h-10.28"/>
          <path class="cls-1" d="M129.59,105.05h-52.55l16.78-26.11c2.69-4.18,7.31-6.7,12.28-6.7h23.49v32.82Z"/>
          <path class="cls-1" d="M140.63,105.05h36l-8.1-17.06c-4.57-9.62-14.27-15.76-24.92-15.76h-2.99v32.82Z"/>
          <line class="cls-2" x1="119.13" y1="118.84" x2="129.59" y2="118.84"/>
          <path class="cls-1" d="M22.29,126.89h8.88c1.52,0,2.76,1.23,2.76,2.76v10.39c0,1.52-1.23,2.76-2.76,2.76h-9.35"/>
        </g>
      </g>
    </g>
  </g>
</svg>