<?xml version="1.0" encoding="UTF-8"?>
<svg id="_レイヤー_2" data-name="レイヤー 2" xmlns="http://www.w3.org/2000/svg" width="152.25" height="70.74" viewBox="0 0 152.25 70.74">
  <defs>
    <style>
      .cls-1 {
        fill: #fff;
        stroke-width: 0px;
      }
    </style>
  </defs>
  <g id="_レイヤー_1-2" data-name="レイヤー 1">
    <path class="cls-1" d="M76.13,70.74C33.44,70.74,0,50.75,0,25.23,0,16.82,3.72,8.66,10.76,1.63c2.16-2.16,5.66-2.16,7.82,0,2.16,2.16,2.16,5.66,0,7.82-4.99,4.98-7.51,10.29-7.51,15.77,0,18.67,29.8,34.45,65.07,34.45s65.07-15.78,65.07-34.45c0-5.49-2.53-10.8-7.52-15.78-2.16-2.16-2.16-5.66,0-7.82,2.16-2.16,5.66-2.17,7.82,0,7.05,7.04,10.77,15.2,10.77,23.61,0,25.52-33.44,45.51-76.13,45.51Z"/>
  </g>
</svg>