<?xml version="1.0" encoding="UTF-8" standalone="no"?>
<!DOCTYPE svg PUBLIC "-//W3C//DTD SVG 1.1//EN" "http://www.w3.org/Graphics/SVG/1.1/DTD/svg11.dtd">
<svg width="100%" height="100%" viewBox="0 0 456 87" version="1.1" xmlns="http://www.w3.org/2000/svg" xmlns:xlink="http://www.w3.org/1999/xlink" xml:space="preserve" xmlns:serif="http://www.serif.com/" style="fill-rule:evenodd;clip-rule:evenodd;stroke-linecap:round;stroke-linejoin:round;stroke-miterlimit:1.5;">
    <g id="アートボード1" transform="matrix(0.222183,0,0,0.0561293,0,0)">
        <rect x="0" y="0" width="2048" height="1536" style="fill:none;"/>
        <g transform="matrix(4.50079,0,0,17.816,0,-2936.68)">
            <path d="M11.782,216.706C11.23,216.706 10.782,216.258 10.782,215.706C10.782,215.154 11.23,214.706 11.782,214.706L118.413,214.706C118.545,214.706 118.675,214.732 118.797,214.782L151.838,228.512L148.006,215.998C147.913,215.695 147.97,215.366 148.158,215.111C148.347,214.856 148.645,214.706 148.962,214.706L446.127,214.706C446.679,214.706 447.127,215.154 447.127,215.706C447.127,216.258 446.679,216.706 446.127,216.706L150.314,216.706L154.372,229.958C154.486,230.329 154.375,230.731 154.088,230.991C153.802,231.252 153.39,231.323 153.033,231.174L118.213,216.706L11.782,216.706Z" style="fill:rgb(219,245,0);"/>
        </g>
        <g transform="matrix(0.308383,0,0,1.16786,53.7091,-640.222)">
            <g transform="matrix(3.32087,0,0,3.11924,105.743,427.924)">
                <circle cx="51.745" cy="152.718" r="1.945" style="stroke:rgb(219,245,0);stroke-width:4.62px;"/>
            </g>
            <g transform="matrix(3.32087,0,0,3.11924,210.801,427.924)">
                <circle cx="51.745" cy="152.718" r="1.945" style="stroke:rgb(219,245,0);stroke-width:4.62px;"/>
            </g>
            <g transform="matrix(2.8973,0,0,2.94918,140.235,452.543)">
                <path d="M65.958,171.48C63.798,171.277 60.971,171.958 58.412,172.368C56.237,172.716 54.213,172.881 52.704,172.578C51.421,172.321 50.407,171.755 49.677,170.922C48.931,170.072 48.423,168.908 48.419,167.271C48.414,164.628 49.869,161.972 52.475,159.877C55.742,157.252 60.862,155.467 66.091,155.697C72.067,155.96 78.187,158.902 81.313,162.025C83.112,163.822 83.976,165.779 83.954,167.432C83.915,170.402 82.117,172.114 79.151,172.716C75.124,173.534 68.121,171.683 65.958,171.48ZM53.47,167.436C53.621,167.475 53.899,167.542 54.097,167.557C54.72,167.605 55.431,167.552 56.193,167.462C59.473,167.073 63.49,166.054 66.416,166.329C68.123,166.489 73.096,167.868 76.818,167.776C77.385,167.762 77.914,167.713 78.376,167.595C78.524,167.558 78.662,167.514 78.788,167.458C78.843,167.433 78.917,167.429 78.917,167.361C78.921,167.105 78.729,166.867 78.534,166.588C78.103,165.974 77.467,165.366 76.7,164.777C74.049,162.742 69.914,161.042 65.875,160.865C61.929,160.691 58.045,161.969 55.58,163.95C54.363,164.929 53.454,166.026 53.457,167.26C53.457,167.312 53.463,167.378 53.47,167.436Z" style="fill:rgb(219,245,0);"/>
            </g>
            <g transform="matrix(4.50079,0,0,4.70447,29.5824,160.563)">
                <path d="M59.05,118.84C59.051,118.841 59.056,118.841 59.057,118.842C60.909,118.877 71.394,119.256 81.632,123.365C93.18,128 104.381,137.294 103.152,155.825C102.728,162.22 99.475,167.677 94.494,171.982C87.292,178.206 76.431,182.003 65.699,182.727C47.413,183.961 29.745,176.257 30.314,157.478C30.988,135.235 41.052,125.869 44.829,123.125L40.179,115.21C39.834,114.623 39.893,113.883 40.326,113.357C40.76,112.832 41.475,112.633 42.117,112.86L59.05,118.84ZM58.229,121.988L45.225,117.396L48.408,122.815C48.632,123.196 48.691,123.652 48.571,124.077C48.451,124.502 48.163,124.859 47.773,125.067C47.773,125.067 34.317,132.437 33.555,157.576C33.048,174.305 49.191,180.591 65.481,179.492C75.495,178.816 85.653,175.336 92.374,169.528C96.675,165.811 99.55,161.133 99.916,155.611C101.025,138.892 90.843,130.556 80.424,126.375C69.738,122.086 58.769,122.081 58.769,122.081C58.585,122.081 58.403,122.05 58.229,121.988Z" style="fill:rgb(219,245,0);"/>
            </g>
            <g transform="matrix(4.50079,0,0,4.70447,23.2649,174.679)">
                <path d="M39.262,170.768C39.885,170.125 40.913,170.109 41.555,170.732C42.198,171.355 42.214,172.382 41.591,173.025C41.591,173.025 34.764,180.041 32.149,186.56C29.374,193.48 26.854,202.44 31.343,209.744C33.576,213.377 37.545,216.55 43.982,218.896C50.732,221.357 60.108,222.881 72.943,223.027C90.989,223.232 101.32,219.216 106.598,213.115C114.363,204.14 110.863,190.949 105.702,181.741C101.22,173.742 94.179,170.441 94.179,170.441C93.368,170.064 93.015,169.099 93.393,168.287C93.77,167.476 94.735,167.123 95.546,167.501C95.546,167.501 103.495,171.169 108.531,180.155C114.3,190.448 117.73,205.204 109.05,215.237C103.365,221.808 92.344,226.491 72.906,226.27C45.869,225.962 33.513,219.467 28.581,211.442C23.53,203.225 26.018,193.137 29.139,185.353C31.952,178.34 39.262,170.768 39.262,170.768Z" style="fill:rgb(219,245,0);"/>
            </g>
            <g transform="matrix(4.50079,0,0,4.70447,23.2649,174.679)">
                <path d="M103.031,175.003C102.218,175.377 101.254,175.021 100.88,174.208C100.506,173.396 100.862,172.432 101.675,172.058C107.358,169.442 110.21,165.203 111.209,162.657C111.503,161.907 112.304,161.486 113.088,161.67C113.873,161.854 114.403,162.587 114.333,163.39C113.449,173.532 113.337,178.62 110.544,184.074C110.137,184.871 109.159,185.186 108.362,184.778C107.566,184.37 107.25,183.393 107.658,182.596C109.62,178.763 110.109,175.111 110.575,169.534C108.773,171.515 106.308,173.495 103.031,175.003Z" style="fill:rgb(219,245,0);"/>
            </g>
        </g>
        <g transform="matrix(4.58095,8.63812,-2.18222,18.1333,528.348,-6132.51)">
            <circle cx="380.201" cy="174.128" r="10.879" style="fill:none;stroke:rgb(219,245,0);stroke-width:0.89px;"/>
        </g>
        <g transform="matrix(2.03841,13.1265,-3.30223,8.03511,1624.81,-6408.58)">
            <circle cx="415.734" cy="193.025" r="8.018" style="fill:none;stroke:rgb(219,245,0);stroke-width:1.16px;"/>
        </g>
        <g transform="matrix(4.50079,0,0,17.816,-14.1736,-2745.95)">
            <circle cx="433.337" cy="194.411" r="6.632" style="fill:none;stroke:rgb(219,245,0);stroke-width:1px;"/>
        </g>
    </g>
</svg>
