<?xml version="1.0" encoding="UTF-8"?>
<svg id="_レイヤー_2" data-name="レイヤー 2" xmlns="http://www.w3.org/2000/svg" width="399.03" height="392" viewBox="0 0 399.03 392">
  <defs>
    <style>
      .cls-1 {
        fill: #dbf500;
        stroke-width: 0px;
      }
    </style>
  </defs>
  <g id="_レイヤー_1-2" data-name="レイヤー 1">
    <g>
      <path class="cls-1" d="M124.84,161.03c-2.98,0-5.94-1.33-7.91-3.87-3.4-4.36-2.61-10.66,1.76-14.05.13-.1,16.06-12.87,16.14-28.67.05-9.15-5.43-18.23-16.28-26.99-16.07-12.98-24.05-27.41-23.72-42.9.53-24.9,23.1-41.87,24.06-42.58,4.45-3.29,10.72-2.35,14.01,2.1,3.28,4.44,2.35,10.69-2.07,13.99-.33.25-15.71,12.06-15.97,27.01-.16,8.93,5.32,17.95,16.28,26.8,15.89,12.83,23.87,27.25,23.73,42.85-.23,25.54-22.91,43.46-23.87,44.21-1.83,1.42-3.99,2.11-6.14,2.11Z"/>
      <path class="cls-1" d="M199.52,161.03c-2.99,0-5.94-1.33-7.91-3.87-3.39-4.36-2.61-10.66,1.76-14.05.13-.1,16.06-12.87,16.14-28.67.05-9.15-5.43-18.23-16.29-26.99-16.07-12.98-24.05-27.41-23.72-42.9.53-24.9,23.1-41.87,24.06-42.58,4.44-3.29,10.72-2.35,14,2.1,3.28,4.44,2.35,10.69-2.07,13.99-.33.25-15.71,12.06-15.97,27.01-.16,8.93,5.32,17.95,16.28,26.8,15.89,12.83,23.87,27.25,23.73,42.85-.23,25.54-22.91,43.46-23.87,44.21-1.83,1.42-3.99,2.11-6.14,2.11Z"/>
      <path class="cls-1" d="M274.21,161.03c-2.99,0-5.94-1.33-7.91-3.87-3.39-4.36-2.61-10.66,1.76-14.05.13-.1,16.06-12.87,16.14-28.67.05-9.15-5.43-18.23-16.29-26.99-16.07-12.98-24.05-27.41-23.72-42.9.53-24.9,23.1-41.87,24.06-42.58,4.44-3.29,10.72-2.35,14,2.1,3.28,4.44,2.35,10.69-2.08,13.99-.38.29-15.71,12.09-15.97,27.01-.16,8.93,5.32,17.95,16.28,26.8,15.89,12.83,23.87,27.25,23.73,42.85-.23,25.54-22.91,43.46-23.87,44.21-1.83,1.42-3.99,2.11-6.14,2.11Z"/>
    </g>
    <path class="cls-1" d="M199.51,392C87.64,392,0,339.6,0,272.72c0-22.03,9.75-43.42,28.19-61.85,5.66-5.65,14.84-5.65,20.5.01,5.66,5.66,5.65,14.84,0,20.5-13.07,13.06-19.69,26.96-19.69,41.34,0,48.94,78.09,90.29,170.53,90.29s170.53-41.35,170.53-90.29c0-14.38-6.63-28.3-19.72-41.37-5.66-5.65-5.67-14.83-.01-20.49,5.66-5.66,14.84-5.68,20.49-.01,18.47,18.44,28.23,39.84,28.23,61.88,0,66.88-87.64,119.28-199.52,119.28Z"/>
  </g>
</svg>