<?xml version="1.0" encoding="UTF-8"?>
<svg id="_01" data-name="01" xmlns="http://www.w3.org/2000/svg" width="100" height="500" viewBox="0 0 100 500">
  <defs>
    <style>
      .cls-1 {
        fill: #ffe9bd;
      }

      .cls-1, .cls-2, .cls-3, .cls-4 {
        stroke-width: 0px;
      }

      .cls-5 {
        stroke: #fdc85f;
        stroke-miterlimit: 10;
      }

      .cls-5, .cls-2 {
        fill: none;
      }

      .cls-3 {
        fill: #fdc85f;
      }

      .cls-4 {
        fill: #e0a464;
      }
    </style>
  </defs>
  <g>
    <g>
      <g>
        <path class="cls-4" d="M57.09,29.47h-.87v-1.45c0-.36-.29-.64-.64-.64h-3.09c-.36,0-.64.29-.64.64v1.45h-1.68v-1.45c0-.36-.29-.64-.64-.64h-3.09c-.36,0-.64.29-.64.64v1.45h-1.68v-1.45c0-.36-.29-.64-.64-.64h-3.09c-.36,0-.64.29-.64.64v1.45h-1.68v-1.45c0-.36-.29-.64-.64-.64h-3.09c-.36,0-.64.29-.64.64v1.45h-1.68v-1.29c0-.44-.36-.81-.81-.81h-2.76c-.44,0-.81.36-.81.81v1.29h-.82c-.89,0-1.62.72-1.62,1.62v.05c0,.89.72,1.62,1.62,1.62h.82v2.01l-.32,15.92c-.05,2.57-.27,5.17-.64,7.71l-.24,1.66c-.03.19.03.37.15.52s.3.22.49.22h13.94c.24,0,.47-.14.58-.36.11.21.33.35.58.35h13.49c.33,0,.61-.25.64-.58.39-4.12.52-8.31.38-12.44l-.44-13v-2.02h.87c.89,0,1.62-.73,1.62-1.62v-.05c0-.89-.72-1.62-1.62-1.62ZM27.63,31.47h-.82c-.18,0-.33-.15-.33-.33v-.05c0-.18.15-.33.33-.33h.82v.71ZM50.16,30.76h1.68v.71h-1.68v-.71ZM50.16,32.76h1.68v1.38h-1.68v-1.38ZM44.11,30.76h1.68v.71h-1.68v-.71ZM44.11,32.76h1.68v1.38h-1.68v-1.38ZM38.05,30.76h1.68v.71h-1.68v-.71ZM38.05,32.76h1.68v1.38h-1.68v-1.38ZM32,30.76h1.68v.71h-1.68v-.71ZM32,32.76h1.68v1.38h-1.68v-1.38ZM55.04,59.52h-12.28s-.09-1.87-.09-1.87c-.01-.3-.24-.55-.53-.6-.3-.05-.59.11-.71.39l-.87,2.09h-12.76l.14-.92c.38-2.6.6-5.25.66-7.88l.32-15.93v-6.13h1.8v6.13c0,.35.29.64.64.64h2.97c.36,0,.64-.29.64-.64v-6.13h1.8v6.13c0,.35.29.64.64.64h2.97c.36,0,.64-.29.64-.64v-6.13h1.8v6.13c0,.35.29.64.64.64h2.97c.36,0,.64-.29.64-.64v-6.13h1.8v6.13c0,.35.29.64.64.64h2.97c.36,0,.64-.29.64-.64v-6.13h1.8v6.15l.44,13.01c.13,3.89.02,7.82-.32,11.7ZM57.41,31.14c0,.18-.15.33-.33.33h-.87v-.71h.87c.18,0,.33.15.33.33v.05Z"/>
        <path class="cls-4" d="M42.98,45.95c-.05,1.15-1.02,1.91-1.07,1.94-.1.08-.22.11-.34.11-.17,0-.34-.08-.45-.22-.19-.25-.14-.6.11-.79,0,0,.6-.47.62-1.09.01-.39-.21-.8-.66-1.21-.71-.65-1.06-1.35-1.03-2.1.05-1.15,1.03-1.91,1.07-1.94.25-.19.6-.14.79.11.19.25.14.6-.11.79-.02.01-.6.48-.62,1.1-.01.39.21.8.66,1.21.72.65,1.06,1.35,1.03,2.1Z"/>
        <path class="cls-4" d="M40.12,45.95c-.05,1.15-1.03,1.91-1.07,1.94-.1.08-.22.11-.34.11-.17,0-.34-.08-.45-.22-.19-.25-.14-.6.11-.79,0,0,.6-.47.62-1.09.01-.39-.21-.8-.66-1.21-.72-.65-1.06-1.35-1.03-2.1.05-1.15,1.02-1.91,1.07-1.94.25-.19.6-.14.79.11.19.25.14.6-.11.79-.02.01-.6.48-.63,1.1-.01.39.21.8.66,1.21.72.65,1.06,1.35,1.03,2.1Z"/>
        <path class="cls-4" d="M46.03,45.95c-.05,1.15-1.02,1.91-1.07,1.94-.1.08-.22.11-.34.11-.17,0-.34-.08-.45-.22-.19-.25-.14-.6.11-.79,0,0,.6-.47.62-1.09.01-.39-.21-.8-.66-1.21-.72-.65-1.06-1.35-1.03-2.1.05-1.15,1.03-1.91,1.07-1.94.25-.19.6-.14.79.11.19.25.14.6-.11.79-.02.01-.6.48-.62,1.1-.01.39.21.8.66,1.21.72.65,1.06,1.35,1.03,2.1Z"/>
        <path class="cls-4" d="M50.64,47.87c0,1.23-.77,2.23-2.18,2.81-.7.29-1.47.43-2.29.43h-8.52c-.82,0-1.59-.15-2.29-.43-1.41-.58-2.18-1.58-2.18-2.81,0-2.21,2.2-3.17,3.37-3.37.31-.05.6.15.65.46.05.31-.15.6-.46.65-.1.02-2.43.45-2.43,2.26,0,.77.5,1.36,1.48,1.77.56.23,1.19.35,1.86.35h8.52c.67,0,1.3-.12,1.86-.35.98-.4,1.48-1,1.48-1.77,0-1.81-2.33-2.24-2.43-2.26-.31-.05-.51-.34-.46-.65.05-.31.34-.51.65-.46,1.16.2,3.37,1.16,3.37,3.37Z"/>
      </g>
      <g>
        <path class="cls-2" d="M67.07,78.01l-.88-.19-.66,4.43,2.82.62.09-.52-1.33-.29c-.49-.11-.8-.59-.69-1.08l.65-2.97Z"/>
        <polygon class="cls-2" points="67.51 75.99 67.86 74.38 66.73 74.14 66.49 75.77 67.51 75.99"/>
        <path class="cls-2" d="M73.33,83.41l-.39-.09-.11.52,2.82.62,1.01-4.35-1.61-.35-.65,2.97c-.11.49-.59.8-1.08.69Z"/>
        <path class="cls-2" d="M67.32,76.83l-1.5-.33c-.08-.02-.16.03-.18.11v.06c-.03.08.02.16.1.18l1.5.33.08-.35Z"/>
        <path class="cls-2" d="M67.29,81.22l6.22,1.36s.05-.01.06-.04l.74-3.38.26-1.18.61-2.78c.05-.23.28-.38.51-.33.2.04.34.23.34.43l.11.02.07-.47c0-.13-.07-.23-.18-.25l-6.73-1.47c-.15-.03-.3.06-.33.21l-.71,3.25-.26,1.18-.74,3.38s.01.05.04.06Z"/>
        <polygon class="cls-2" points="85.25 78.18 82.22 77.52 81.8 79.12 84.79 79.77 85.25 78.18"/>
        <polygon class="cls-2" points="65.22 84.3 64.98 85.92 67.7 86.52 67.99 84.9 65.22 84.3"/>
        <polygon class="cls-2" points="75.5 77.74 77.14 78.1 77.46 76.7 77.51 76.49 75.85 76.13 75.5 77.74"/>
        <polygon class="cls-2" points="81.38 77.34 78.35 76.67 78.3 76.88 77.97 78.28 80.97 78.93 81.38 77.34"/>
        <polygon class="cls-2" points="69.18 83.05 72 83.66 72.11 83.15 69.27 82.53 69.18 83.05"/>
        <path class="cls-2" d="M85.09,80.71l-9.77-2.13-.08.35,2.04.44s0,0,0,0c0,0,0,0,0,0l3.79.83s0,0,0,0c0,0,0,0,0,0l3.93.86c.08.02.16-.03.18-.11v-.06c.03-.08-.02-.16-.1-.18Z"/>
        <polygon class="cls-2" points="77.51 80.29 76.49 84.64 79.31 85.26 80.44 80.93 77.51 80.29"/>
        <polygon class="cls-2" points="81.28 81.12 80.15 85.44 82.97 86.06 84.22 81.76 81.28 81.12"/>
        <polygon class="cls-2" points="72.1 87.48 74.82 88.07 75.19 86.47 72.42 85.87 72.1 87.48"/>
        <polygon class="cls-2" points="68.82 85.08 68.54 86.7 71.26 87.29 71.59 85.69 68.82 85.08"/>
        <polygon class="cls-2" points="75.65 88.25 78.38 88.85 78.79 87.26 76.03 86.65 75.65 88.25"/>
        <path class="cls-2" d="M83.14,86.97l-10.9-2.38s0,0,0,0c0,0,0,0,0,0,0,0,0,0,0,0l-3.64-.79s0,0,0,0c0,0,0,0,0,0l-3.61-.79c-.07-.02-.14.03-.16.1l-.02.09c-.02.07.03.14.1.16l18.16,3.97c.07.02.14-.03.16-.1l.02-.09c.02-.07-.03-.14-.1-.16Z"/>
        <polygon class="cls-2" points="79.21 89.03 81.94 89.62 82.39 88.05 79.63 87.44 79.21 89.03"/>
        <path class="cls-4" d="M85.61,80.02l.59-2.04c.03-.11.02-.24-.04-.34-.06-.1-.16-.17-.28-.2l-3.88-.85-3.88-.85s0,0,0,0l-1.14-.25.08-.55s0-.03,0-.05c.02-.56-.33-1.02-.85-1.14l-6.73-1.47c-.61-.13-1.22.26-1.35.87l-.09.39-1.57-.34c-.12-.03-.24,0-.33.07-.1.07-.16.17-.18.29l-.31,2.1c-.4.06-.73.36-.82.78v.06c-.11.46.12.92.53,1.12l-.68,4.58c-.33.1-.6.37-.68.73l-.02.09c-.09.41.09.81.42,1.03l-.32,2.15c-.03.22.11.43.33.48l3.55.77,3.55.77,3.55.77,3.55.77,3.55.77c.22.05.44-.08.5-.3l.6-2.08c.39-.06.72-.35.81-.76l.02-.09c.08-.36-.05-.72-.31-.95l1.29-4.45c.45,0,.86-.33.96-.79v-.06c.1-.41-.08-.83-.41-1.05ZM82.22,77.52l3.04.66-.46,1.59-2.99-.65.42-1.6ZM78.3,76.88l.05-.21,3.04.66-.42,1.6-2.99-.65.33-1.4ZM77.51,76.49l-.05.21-.33,1.4-1.64-.36.35-1.61,1.66.36ZM67.99,77.78l.26-1.18.71-3.25c.03-.15.18-.25.33-.21l6.73,1.47c.11.02.18.12.18.25l-.07.47-.11-.02c0-.2-.13-.38-.34-.43-.23-.05-.46.1-.51.33l-.61,2.78-.26,1.18-.74,3.38s-.03.04-.06.04l-6.22-1.36s-.04-.03-.04-.06l.74-3.38ZM75.06,79.76l1.61.35-1.01,4.35-2.82-.62.11-.52.39.09c.49.11.97-.2,1.08-.69l.65-2.97ZM72,83.66l-2.82-.62.09-.52,2.83.62-.11.52ZM67.11,82.05l1.33.29-.09.52-2.82-.62.66-4.43.88.19-.65,2.97c-.11.49.2.97.69,1.08ZM67.86,74.38l-.35,1.61-1.02-.22.24-1.63,1.13.25ZM65.75,76.85c-.08-.02-.13-.1-.11-.18v-.06c.03-.08.11-.13.19-.11l1.5.33-.08.35-1.5-.33ZM64.98,85.92l.24-1.63,2.76.6-.29,1.62-2.72-.59ZM68.54,86.7l.29-1.62,2.77.6-.33,1.61-2.72-.59ZM74.82,88.07l-2.72-.59.33-1.61,2.77.6-.37,1.6ZM78.38,88.85l-2.72-.59.37-1.6,2.77.6-.41,1.59ZM81.94,89.62l-2.72-.59.41-1.59,2.77.6-.46,1.58ZM83.23,87.22c-.02.07-.09.12-.16.1l-18.16-3.97c-.07-.02-.12-.09-.1-.16l.02-.09c.02-.07.09-.12.16-.1l3.61.79s0,0,0,0c0,0,0,0,0,0l3.64.79s0,0,0,0c0,0,0,0,0,0,0,0,0,0,0,0l10.9,2.38c.07.02.12.09.1.16l-.02.09ZM76.49,84.64l1.01-4.35,2.94.64-1.13,4.32-2.82-.62ZM80.15,85.44l1.13-4.32,2.94.64-1.25,4.3-2.82-.62ZM85.19,80.94c-.02.08-.1.13-.18.11l-3.93-.86s0,0,0,0c0,0,0,0,0,0l-3.79-.83s0,0,0,0c0,0,0,0,0,0l-2.04-.44.08-.35,9.77,2.13c.08.02.13.1.11.18v.06Z"/>
      </g>
      <path class="cls-2" d="M43.53,100.78c-6.15,2.11-3.63,12.47-1.58,18.46,2.28,6.66,6.29,9.73,10.71,8.22,4.43-1.52,5.71-6.4,3.43-13.06-3.64-10.64-7.87-15.22-12.56-13.61ZM52.51,114.03c-.62-1.43-1.63-2.73-2.77-3.82-1.02-.96-2.17-1.78-3.42-2.44-.21.17-.47.26-.73.27-.57,1.28-.98,2.63-1.19,4-.24,1.56-.24,3.21.15,4.73.32,1.44-1.76,1.94-2.13.51-.4-1.86-.33-3.74.02-5.58.35-1.79.99-3.51,1.86-5.1l-.66-2.3c-.31-1.19,1.35-1.76,1.84-.65l.9,2.16s.05.01.07.02c1.67.73,3.23,1.7,4.62,2.9,1.41,1.23,2.61,2.68,3.44,4.39.59,1.36-1.37,2.25-2,.9Z"/>
      <path class="cls-2" d="M27.83,106.15c-6.15,2.11-3.63,12.47-1.58,18.46,2.28,6.66,6.29,9.73,10.71,8.22s5.71-6.4,3.43-13.06c-3.64-10.64-7.87-15.22-12.56-13.61ZM38.82,118.5c.59,1.36-1.37,2.25-2,.9-.62-1.43-1.63-2.73-2.77-3.82-1.02-.96-2.17-1.78-3.42-2.44-.21.17-.47.26-.73.27-.57,1.28-.98,2.63-1.19,4-.24,1.56-.24,3.21.15,4.73.32,1.44-1.76,1.94-2.13.51-.4-1.86-.33-3.74.02-5.58.35-1.79.99-3.51,1.86-5.1l-.66-2.3c-.31-1.19,1.35-1.76,1.84-.65l.9,2.16s.05.01.07.02c1.67.73,3.23,1.7,4.62,2.9,1.41,1.23,2.61,2.68,3.44,4.39Z"/>
      <path class="cls-4" d="M54.51,113.13c-.82-1.71-2.03-3.16-3.44-4.39-1.39-1.21-2.95-2.18-4.62-2.9-.02-.01-.05-.02-.07-.02l-.9-2.16c-.49-1.11-2.15-.54-1.84.65l.66,2.3c-.86,1.59-1.5,3.3-1.86,5.1-.36,1.84-.42,3.72-.02,5.58.37,1.44,2.45.93,2.13-.51-.39-1.52-.39-3.16-.15-4.73.21-1.37.62-2.72,1.19-4,.26,0,.52-.11.73-.27,1.25.67,2.4,1.48,3.42,2.44,1.15,1.09,2.15,2.38,2.77,3.82.63,1.35,2.59.46,2-.9Z"/>
      <path class="cls-4" d="M43,99.23c-3.96,1.35-5.58,5.26-4.83,11.43-3.19-5.4-6.83-7.44-10.86-6.06-5.64,1.93-6.54,9.03-2.6,20.54,3.08,8.99,8.63,10.67,12.8,9.24,3.12-1.07,5.78-3.98,5.64-9.14,3.05,4.16,6.94,4.83,10.05,3.76,4.17-1.43,7.53-6.15,4.45-15.14-4-11.67-8.92-16.59-14.64-14.63ZM36.97,132.83c-4.43,1.52-8.43-1.56-10.71-8.22-2.05-5.99-4.57-16.35,1.58-18.46,4.69-1.61,8.92,2.97,12.56,13.61,2.28,6.66,1,11.54-3.43,13.06ZM52.66,127.45c-4.43,1.52-8.43-1.56-10.71-8.22-2.05-5.99-4.57-16.35,1.58-18.46,4.69-1.61,8.92,2.97,12.56,13.61,2.28,6.66,1,11.54-3.43,13.06Z"/>
      <path class="cls-4" d="M30.76,111.2s-.05-.02-.07-.02l-.9-2.16c-.49-1.11-2.15-.54-1.84.65l.66,2.3c-.86,1.59-1.5,3.3-1.86,5.1-.36,1.84-.42,3.72-.02,5.58.37,1.44,2.45.93,2.13-.51-.39-1.52-.39-3.16-.15-4.73.21-1.37.62-2.72,1.19-4,.26,0,.52-.11.73-.27,1.25.67,2.4,1.48,3.42,2.44,1.15,1.09,2.15,2.38,2.77,3.82.63,1.35,2.59.46,2-.9-.82-1.71-2.03-3.16-3.44-4.39-1.39-1.21-2.95-2.18-4.62-2.9Z"/>
      <g>
        <polygon class="cls-2" points="54.61 178.26 58.56 171.18 52.8 170.37 53.91 175.19 54.61 178.26"/>
        <polygon class="cls-2" points="59.28 169.83 60.8 166.67 51.83 165.43 52.48 168.87 59.28 169.83"/>
        <path class="cls-2" d="M53.56,180.14l-2.4-10.46s0-.02,0-.03l-.74-3.91-3.16,1.94,4.04,16.52,2.26-4.06Z"/>
        <polygon class="cls-2" points="45.9 168.17 42.81 168.76 38.79 197.46 43.54 198.12 50.27 186.04 45.9 168.17"/>
        <polygon class="cls-2" points="60.88 188.51 56.94 191.39 59.21 198.52 63.28 198.1 62.66 195.65 60.88 188.51"/>
        <polygon class="cls-2" points="62.72 187.64 62.23 187.97 63.6 193.47 66.6 190.76 62.72 187.64"/>
        <path class="cls-2" d="M55.18,191.65c.09-.07.19-.11.29-.13l-.06-.19c-.09-.29.01-.62.26-.8l5.22-3.81c.19-.14.44-.18.67-.1.02,0,.04.02.06.02l.73-.49c.26-.18.61-.16.86.03l3.07,2.47,2.28-16.26-2.81-1.28-11.97,21.64,1.41-1.11Z"/>
        <path class="cls-2" d="M64.14,194.93c.08.03.15.07.22.12l4.53,3.75,2.77-3.59-4.27-3.22-3.25,2.94Z"/>
        <path class="cls-2" d="M64.56,170.28l-2.53-2.86-1.68,3.5s-.01.03-.02.04l-6.91,12.38-1.76,3.15s0,0,0,0l-6.6,11.84,1.51.21c.04-.13.12-.25.23-.33l4.05-3.18,13.7-24.75Z"/>
        <polygon class="cls-2" points="64.87 197.34 64.5 197.03 64.63 197.57 64.87 197.34"/>
        <path class="cls-2" d="M55.91,192.91l-7.61,5.97,3.34,3.75,5.69-4.63c.05-.04.11-.07.17-.1l-1.59-5Z"/>
        <path class="cls-2" d="M64.54,199.36c-.09.05-.18.08-.28.09l-5.49.57c-.06,0-.12,0-.17,0-.27-.04-.5-.23-.59-.49l-.05-.17-.84.68,7.41,1.04.23-1.73c-.07.02-.15.03-.22.02Z"/>
        <path class="cls-4" d="M73.39,194.97c-.03-.19-.13-.36-.28-.48l-4.72-3.56c.02-.07.04-.15.03-.23,0-.21-.1-.41-.27-.54l-.57-.46,2.47-17.65s0-.03,0-.05c0-.02,0-.03,0-.05,0-.03,0-.06,0-.09,0-.01,0-.03,0-.04,0-.03-.01-.06-.03-.09,0-.01,0-.02-.01-.04-.01-.03-.03-.06-.04-.09,0-.01-.01-.02-.02-.04-.02-.03-.04-.05-.06-.07-.01-.01-.02-.02-.03-.03-.02-.02-.04-.04-.07-.06-.01,0-.02-.02-.04-.03-.03-.02-.05-.03-.08-.05,0,0-.02-.01-.02-.01l-3.77-1.71-3.48-3.94c-.16-.18-.4-.27-.64-.24,0,0,0,0-.01,0v-.07s-10.67-1.47-10.67-1.47c-.17-.03-.36,0-.51.09l-4.38,2.69-4.14.79s-.01,0-.02,0c-.02,0-.05.01-.07.02-.02,0-.05.02-.07.03-.02,0-.03.02-.05.03-.02.01-.05.03-.07.04-.01,0-.02.02-.04.03-.02.02-.05.04-.07.06,0,.01-.02.02-.03.03-.02.02-.04.05-.06.08,0,.01-.01.02-.02.03-.02.03-.03.06-.04.09,0,.01,0,.02-.01.03-.01.04-.02.07-.03.11,0,0,0,0,0,.01l-4.19,29.92c-.06.39.22.76.61.81l5.95.83,3.66.51,3.53,3.97c.12.13.27.21.44.23.19.03.39-.02.55-.15l3.58-2.91,9.45,1.33c.19.03.38-.02.54-.14.15-.12.25-.29.28-.48l.46-3.43,2.22,1.84c.1.09.23.14.36.16.06,0,.12,0,.18,0,.19-.02.37-.12.49-.28l3.67-4.76c.12-.15.17-.34.14-.54ZM63.6,193.47l-1.37-5.5.49-.33,3.88,3.12-2.99,2.71ZM63.28,198.1l-4.08.42-2.27-7.14,3.94-2.87,1.78,7.13.62,2.46ZM65.74,171.12l2.81,1.28-2.28,16.26-3.07-2.47c-.25-.2-.59-.21-.86-.03l-.73.49s-.04-.02-.06-.02c-.23-.08-.48-.05-.67.1l-5.22,3.81c-.25.18-.36.5-.26.8l.06.19c-.1.02-.2.07-.29.13l-1.41,1.11,11.97-21.64ZM60.8,166.67l-1.52,3.16-6.8-.95-.65-3.44,8.97,1.24ZM58.56,171.18l-3.95,7.08-.7-3.07-1.1-4.82,5.76.81ZM50.42,165.74l.74,3.91s0,.02,0,.03l2.4,10.46-2.26,4.06-4.04-16.52,3.16-1.94ZM43.54,198.12l-4.75-.67,4.02-28.69,3.09-.59,4.37,17.87-6.73,12.08ZM46.81,198.22c-.11.09-.19.2-.23.33l-1.51-.21,6.6-11.84s0,0,0,0l1.76-3.15,6.91-12.38s.01-.03.02-.04l1.68-3.5,2.53,2.86-13.7,24.75-4.05,3.18ZM51.64,202.63l-3.34-3.75,7.61-5.97,1.59,5c-.06.03-.12.06-.17.1l-5.69,4.63ZM57.12,200.03l.84-.68.05.17c.09.27.32.46.59.49.06,0,.12,0,.17,0l5.49-.57c.1-.01.2-.04.28-.09.07,0,.15,0,.22-.02l-.23,1.73-7.41-1.04ZM64.5,197.03l.37.31-.24.24-.14-.54ZM68.89,198.8l-4.53-3.75c-.07-.06-.14-.1-.22-.12l3.25-2.94,4.27,3.22-2.77,3.59Z"/>
      </g>
      <g>
        <path class="cls-2" d="M78.98,232.7l-8.79,2.09c-.6.14-1.22.17-1.81.1-.71-.09-1.39-.33-2.02-.72-.02-.01-.04-.02-.06-.03l-6.08-3.9-1.02.19c-.39.11-.75.59-.81,1.08l-.09.66c-.06.44.1.89.28,1,0,0,.02.01.02.02l.44.31,7.79,4.84c.23.14.31.46.17.71-.1.19-.3.28-.49.26-.06,0-.13-.03-.18-.07l-7.76-4.82-.14.41c-.12.36.01.77.32.96l7.13,4.57h0s0,0,.01,0c.27.14,1.06.42,1.6.17.26-.12.45-.36.57-.73.5-1.57-1.01-2.48-1.07-2.51l-7.47-4.56c-.23-.14-.31-.46-.17-.71.14-.25.44-.34.67-.2l7.45,4.55c.8.46,2.13,1.83,1.52,3.75-.11.34-.27.64-.47.87.19-.02.37-.05.56-.09l10.21-2.42c.82-.19,1.45-.92,1.56-1.81l.12-.93c.12-.91-.25-1.79-.96-2.29l-1.04-.74Z"/>
        <polygon class="cls-2" points="65.89 240.36 65.89 240.36 65.9 240.36 65.89 240.36 65.89 240.36"/>
        <path class="cls-2" d="M65.87,240.35s.01,0,.02,0c0,0-.01,0-.02,0h0Z"/>
        <path class="cls-2" d="M81.78,229.54l.12-.93c.12-.91-.25-1.79-.96-2.29l-7-4.98c-.53-.35-1.17-.45-1.79-.29,0,0-.02,0-.03,0l-12,2.24c-.39.11-.75.59-.81,1.08l-.09.66c-.06.44.1.89.28,1,0,0,.02.01.02.02l.44.31,7.79,4.84c.23.14.31.46.17.71-.14.25-.44.33-.67.19l-7.76-4.82-.14.41c-.12.36.01.77.32.96l.9.58,6.22,3.99h0s0,0,0,0c0,0,0,0,0,0,.26.13,1.05.43,1.6.18.26-.12.45-.36.57-.74.5-1.57-1.01-2.48-1.07-2.51l-7.47-4.56c-.23-.14-.31-.46-.17-.71.14-.25.44-.34.67-.2l7.46,4.55c.79.45,2.13,1.82,1.51,3.75-.11.34-.27.64-.47.87.19-.02.37-.05.56-.09l8.98-2.13s.01,0,.02,0l1.21-.29c.82-.19,1.45-.92,1.56-1.81Z"/>
        <path class="cls-2" d="M66.79,233.22s.01,0,.02,0c0,0-.01,0-.02,0h0Z"/>
        <polygon class="cls-2" points="66.82 233.23 66.81 233.23 66.81 233.23 66.82 233.23"/>
        <path class="cls-4" d="M82.75,229.67l.12-.93c.17-1.3-.36-2.56-1.37-3.28l-7.01-4.98s0,0-.01,0c-.75-.49-1.64-.64-2.51-.43l-12.01,2.24s-.02,0-.03,0c-.79.21-1.46,1.03-1.58,1.97l-.09.66c-.07.58.06,1.3.44,1.75-.01.02-.02.05-.03.08l-.21.61c-.25.75-.03,1.57.53,2.05-.79.21-1.44,1.04-1.56,1.97l-.09.66c-.08.58.06,1.3.44,1.75-.01.02-.03.05-.03.08l-.21.61c-.28.83.02,1.75.72,2.2l7.13,4.58s.04.02.06.03c.62.39,1.31.63,2.02.72.6.08,1.21.05,1.81-.1l10.21-2.42c1.22-.29,2.16-1.38,2.33-2.7l.12-.93c.17-1.3-.36-2.56-1.37-3.28l-.26-.19.1-.02c1.22-.29,2.16-1.38,2.33-2.7ZM65.87,240.35h0s.01,0,.02,0c0,0-.01,0-.02,0ZM65.89,240.36s0,0,0,0h0s0,0,0,0c0,0,0,0,0,0ZM80.98,235.73l-.12.93c-.11.89-.74,1.61-1.56,1.81l-10.21,2.42c-.19.04-.37.07-.56.09.2-.24.36-.53.47-.87.61-1.92-.72-3.29-1.52-3.75l-7.45-4.55c-.23-.14-.53-.05-.67.2-.14.25-.06.57.17.71l7.47,4.56c.06.04,1.58.94,1.07,2.51-.12.37-.31.61-.57.73-.54.25-1.33-.04-1.6-.17,0,0,0,0-.01,0h0s-7.13-4.57-7.13-4.57c-.31-.2-.44-.6-.32-.96l.14-.41,7.76,4.82c.06.04.12.06.18.07.19.02.38-.07.49-.26.14-.25.06-.57-.17-.71l-7.79-4.84-.44-.31s-.02-.01-.02-.02c-.18-.11-.34-.56-.28-1l.09-.66c.06-.49.43-.97.81-1.08l1.02-.19,6.08,3.9s.04.02.06.03c.62.39,1.31.63,2.02.72.6.08,1.21.05,1.81-.1l8.79-2.09,1.04.74c.71.5,1.07,1.38.96,2.29ZM66.79,233.22h0s.01,0,.02,0c0,0-.01,0-.02,0ZM80.22,231.35l-1.21.29s-.01,0-.02,0l-8.98,2.13c-.19.04-.37.07-.56.09.2-.24.36-.53.47-.87.62-1.92-.72-3.29-1.51-3.75l-7.46-4.55c-.23-.14-.53-.05-.67.2-.14.25-.06.57.17.71l7.47,4.56c.06.04,1.58.94,1.07,2.51-.12.37-.31.61-.57.74-.55.25-1.34-.04-1.6-.18,0,0,0,0,0,0,0,0,0,0,0,0,0,0,0,0,0,0,0,0,0,0,0,0h0s0,0,0,0l-6.22-3.99-.9-.58c-.31-.2-.44-.6-.32-.96l.14-.41,7.76,4.82c.23.14.53.06.67-.19.14-.25.06-.57-.17-.71l-7.79-4.84-.44-.31s-.02-.01-.02-.02c-.18-.11-.34-.56-.28-1l.09-.66c.06-.49.43-.97.81-1.08l12-2.24s.02,0,.03,0c.62-.16,1.25-.05,1.79.29l7,4.98c.71.5,1.07,1.38.96,2.29l-.12.93c-.11.89-.74,1.61-1.56,1.81Z"/>
      </g>
    </g>
    <g>
      <g>
        <path class="cls-4" d="M57.09,268.74h-.87v-1.45c0-.36-.29-.64-.64-.64h-3.09c-.36,0-.64.29-.64.64v1.45h-1.68v-1.45c0-.36-.29-.64-.64-.64h-3.09c-.36,0-.64.29-.64.64v1.45h-1.68v-1.45c0-.36-.29-.64-.64-.64h-3.09c-.36,0-.64.29-.64.64v1.45h-1.68v-1.45c0-.36-.29-.64-.64-.64h-3.09c-.36,0-.64.29-.64.64v1.45h-1.68v-1.29c0-.44-.36-.81-.81-.81h-2.76c-.44,0-.81.36-.81.81v1.29h-.82c-.89,0-1.62.72-1.62,1.62v.05c0,.89.72,1.62,1.62,1.62h.82v2.01l-.32,15.92c-.05,2.57-.27,5.17-.64,7.71l-.24,1.66c-.03.19.03.37.15.52s.3.22.49.22h13.94c.24,0,.47-.14.58-.36.11.21.33.35.58.35h13.49c.33,0,.61-.25.64-.58.39-4.12.52-8.31.38-12.44l-.44-13v-2.02h.87c.89,0,1.62-.73,1.62-1.62v-.05c0-.89-.72-1.62-1.62-1.62ZM27.63,270.74h-.82c-.18,0-.33-.15-.33-.33v-.05c0-.18.15-.33.33-.33h.82v.71ZM50.16,270.03h1.68v.71h-1.68v-.71ZM50.16,272.03h1.68v1.38h-1.68v-1.38ZM44.11,270.03h1.68v.71h-1.68v-.71ZM44.11,272.03h1.68v1.38h-1.68v-1.38ZM38.05,270.03h1.68v.71h-1.68v-.71ZM38.05,272.03h1.68v1.38h-1.68v-1.38ZM32,270.03h1.68v.71h-1.68v-.71ZM32,272.03h1.68v1.38h-1.68v-1.38ZM55.04,298.78h-12.28s-.09-1.87-.09-1.87c-.01-.3-.24-.55-.53-.6-.3-.05-.59.11-.71.39l-.87,2.09h-12.76l.14-.92c.38-2.6.6-5.25.66-7.88l.32-15.93v-6.13h1.8v6.13c0,.35.29.64.64.64h2.97c.36,0,.64-.29.64-.64v-6.13h1.8v6.13c0,.35.29.64.64.64h2.97c.36,0,.64-.29.64-.64v-6.13h1.8v6.13c0,.35.29.64.64.64h2.97c.36,0,.64-.29.64-.64v-6.13h1.8v6.13c0,.35.29.64.64.64h2.97c.36,0,.64-.29.64-.64v-6.13h1.8v6.15l.44,13.01c.13,3.89.02,7.82-.32,11.7ZM57.41,270.41c0,.18-.15.33-.33.33h-.87v-.71h.87c.18,0,.33.15.33.33v.05Z"/>
        <path class="cls-4" d="M42.98,285.22c-.05,1.15-1.02,1.91-1.07,1.94-.1.08-.22.11-.34.11-.17,0-.34-.08-.45-.22-.19-.25-.14-.6.11-.79,0,0,.6-.47.62-1.09.01-.39-.21-.8-.66-1.21-.71-.65-1.06-1.35-1.03-2.1.05-1.15,1.03-1.91,1.07-1.94.25-.19.6-.14.79.11.19.25.14.6-.11.79-.02.01-.6.48-.62,1.1-.01.39.21.8.66,1.21.72.65,1.06,1.35,1.03,2.1Z"/>
        <path class="cls-4" d="M40.12,285.22c-.05,1.15-1.03,1.91-1.07,1.94-.1.08-.22.11-.34.11-.17,0-.34-.08-.45-.22-.19-.25-.14-.6.11-.79,0,0,.6-.47.62-1.09.01-.39-.21-.8-.66-1.21-.72-.65-1.06-1.35-1.03-2.1.05-1.15,1.02-1.91,1.07-1.94.25-.19.6-.14.79.11.19.25.14.6-.11.79-.02.01-.6.48-.63,1.1-.01.39.21.8.66,1.21.72.65,1.06,1.35,1.03,2.1Z"/>
        <path class="cls-4" d="M46.03,285.22c-.05,1.15-1.02,1.91-1.07,1.94-.1.08-.22.11-.34.11-.17,0-.34-.08-.45-.22-.19-.25-.14-.6.11-.79,0,0,.6-.47.62-1.09.01-.39-.21-.8-.66-1.21-.72-.65-1.06-1.35-1.03-2.1.05-1.15,1.03-1.91,1.07-1.94.25-.19.6-.14.79.11.19.25.14.6-.11.79-.02.01-.6.48-.62,1.1-.01.39.21.8.66,1.21.72.65,1.06,1.35,1.03,2.1Z"/>
        <path class="cls-4" d="M50.64,287.13c0,1.23-.77,2.23-2.18,2.81-.7.29-1.47.43-2.29.43h-8.52c-.82,0-1.59-.15-2.29-.43-1.41-.58-2.18-1.58-2.18-2.81,0-2.21,2.2-3.17,3.37-3.37.31-.05.6.15.65.46.05.31-.15.6-.46.65-.1.02-2.43.45-2.43,2.26,0,.77.5,1.36,1.48,1.77.56.23,1.19.35,1.86.35h8.52c.67,0,1.3-.12,1.86-.35.98-.4,1.48-1,1.48-1.77,0-1.81-2.33-2.24-2.43-2.26-.31-.05-.51-.34-.46-.65.05-.31.34-.51.65-.46,1.16.2,3.37,1.16,3.37,3.37Z"/>
      </g>
      <g>
        <path class="cls-2" d="M67.07,317.28l-.88-.19-.66,4.43,2.82.62.09-.52-1.33-.29c-.49-.11-.8-.59-.69-1.08l.65-2.97Z"/>
        <polygon class="cls-2" points="67.51 315.26 67.86 313.65 66.73 313.41 66.49 315.04 67.51 315.26"/>
        <path class="cls-2" d="M73.33,322.68l-.39-.09-.11.52,2.82.62,1.01-4.35-1.61-.35-.65,2.97c-.11.49-.59.8-1.08.69Z"/>
        <path class="cls-2" d="M67.32,316.1l-1.5-.33c-.08-.02-.16.03-.18.11v.06c-.03.08.02.16.1.18l1.5.33.08-.35Z"/>
        <path class="cls-2" d="M67.29,320.49l6.22,1.36s.05-.01.06-.04l.74-3.38.26-1.18.61-2.78c.05-.23.28-.38.51-.33.2.04.34.23.34.43l.11.02.07-.47c0-.13-.07-.23-.18-.25l-6.73-1.47c-.15-.03-.3.06-.33.21l-.71,3.25-.26,1.18-.74,3.38s.01.05.04.06Z"/>
        <polygon class="cls-2" points="85.25 317.45 82.22 316.79 81.8 318.38 84.79 319.04 85.25 317.45"/>
        <polygon class="cls-2" points="65.22 323.56 64.98 325.19 67.7 325.78 67.99 324.17 65.22 323.56"/>
        <polygon class="cls-2" points="75.5 317.01 77.14 317.36 77.46 315.97 77.51 315.76 75.85 315.4 75.5 317.01"/>
        <polygon class="cls-2" points="81.38 316.6 78.35 315.94 78.3 316.15 77.97 317.55 80.97 318.2 81.38 316.6"/>
        <polygon class="cls-2" points="69.18 322.31 72 322.93 72.11 322.41 69.27 321.79 69.18 322.31"/>
        <path class="cls-2" d="M85.09,319.98l-9.77-2.13-.08.35,2.04.44s0,0,0,0c0,0,0,0,0,0l3.79.83s0,0,0,0c0,0,0,0,0,0l3.93.86c.08.02.16-.03.18-.11v-.06c.03-.08-.02-.16-.1-.18Z"/>
        <polygon class="cls-2" points="77.51 319.56 76.49 323.91 79.31 324.53 80.44 320.2 77.51 319.56"/>
        <polygon class="cls-2" points="81.28 320.38 80.15 324.71 82.97 325.32 84.22 321.03 81.28 320.38"/>
        <polygon class="cls-2" points="72.1 326.74 74.82 327.34 75.19 325.74 72.42 325.14 72.1 326.74"/>
        <polygon class="cls-2" points="68.82 324.35 68.54 325.97 71.26 326.56 71.59 324.95 68.82 324.35"/>
        <polygon class="cls-2" points="75.65 327.52 78.38 328.12 78.79 326.53 76.03 325.92 75.65 327.52"/>
        <path class="cls-2" d="M83.14,326.24l-10.9-2.38s0,0,0,0c0,0,0,0,0,0,0,0,0,0,0,0l-3.64-.79s0,0,0,0c0,0,0,0,0,0l-3.61-.79c-.07-.02-.14.03-.16.1l-.02.09c-.02.07.03.14.1.16l18.16,3.97c.07.02.14-.03.16-.1l.02-.09c.02-.07-.03-.14-.1-.16Z"/>
        <polygon class="cls-2" points="79.21 328.3 81.94 328.89 82.39 327.31 79.63 326.71 79.21 328.3"/>
        <path class="cls-4" d="M85.61,319.29l.59-2.04c.03-.11.02-.24-.04-.34-.06-.1-.16-.17-.28-.2l-3.88-.85-3.88-.85s0,0,0,0l-1.14-.25.08-.55s0-.03,0-.05c.02-.56-.33-1.02-.85-1.14l-6.73-1.47c-.61-.13-1.22.26-1.35.87l-.09.39-1.57-.34c-.12-.03-.24,0-.33.07-.1.07-.16.17-.18.29l-.31,2.1c-.4.06-.73.36-.82.78v.06c-.11.46.12.92.53,1.12l-.68,4.58c-.33.1-.6.37-.68.73l-.02.09c-.09.41.09.81.42,1.03l-.32,2.15c-.03.22.11.43.33.48l3.55.77,3.55.77,3.55.77,3.55.77,3.55.77c.22.05.44-.08.5-.3l.6-2.08c.39-.06.72-.35.81-.76l.02-.09c.08-.36-.05-.72-.31-.95l1.29-4.45c.45,0,.86-.33.96-.79v-.06c.1-.41-.08-.83-.41-1.05ZM82.22,316.79l3.04.66-.46,1.59-2.99-.65.42-1.6ZM78.3,316.15l.05-.21,3.04.66-.42,1.6-2.99-.65.33-1.4ZM77.51,315.76l-.05.21-.33,1.4-1.64-.36.35-1.61,1.66.36ZM67.99,317.04l.26-1.18.71-3.25c.03-.15.18-.25.33-.21l6.73,1.47c.11.02.18.12.18.25l-.07.47-.11-.02c0-.2-.13-.38-.34-.43-.23-.05-.46.1-.51.33l-.61,2.78-.26,1.18-.74,3.38s-.03.04-.06.04l-6.22-1.36s-.04-.03-.04-.06l.74-3.38ZM75.06,319.02l1.61.35-1.01,4.35-2.82-.62.11-.52.39.09c.49.11.97-.2,1.08-.69l.65-2.97ZM72,322.93l-2.82-.62.09-.52,2.83.62-.11.52ZM67.11,321.32l1.33.29-.09.52-2.82-.62.66-4.43.88.19-.65,2.97c-.11.49.2.97.69,1.08ZM67.86,313.65l-.35,1.61-1.02-.22.24-1.63,1.13.25ZM65.75,316.12c-.08-.02-.13-.1-.11-.18v-.06c.03-.08.11-.13.19-.11l1.5.33-.08.35-1.5-.33ZM64.98,325.19l.24-1.63,2.76.6-.29,1.62-2.72-.59ZM68.54,325.97l.29-1.62,2.77.6-.33,1.61-2.72-.59ZM74.82,327.34l-2.72-.59.33-1.61,2.77.6-.37,1.6ZM78.38,328.12l-2.72-.59.37-1.6,2.77.6-.41,1.59ZM81.94,328.89l-2.72-.59.41-1.59,2.77.6-.46,1.58ZM83.23,326.48c-.02.07-.09.12-.16.1l-18.16-3.97c-.07-.02-.12-.09-.1-.16l.02-.09c.02-.07.09-.12.16-.1l3.61.79s0,0,0,0c0,0,0,0,0,0l3.64.79s0,0,0,0c0,0,0,0,0,0,0,0,0,0,0,0l10.9,2.38c.07.02.12.09.1.16l-.02.09ZM76.49,323.91l1.01-4.35,2.94.64-1.13,4.32-2.82-.62ZM80.15,324.71l1.13-4.32,2.94.64-1.25,4.3-2.82-.62ZM85.19,320.21c-.02.08-.1.13-.18.11l-3.93-.86s0,0,0,0c0,0,0,0,0,0l-3.79-.83s0,0,0,0c0,0,0,0,0,0l-2.04-.44.08-.35,9.77,2.13c.08.02.13.1.11.18v.06Z"/>
      </g>
      <path class="cls-2" d="M43.53,340.05c-6.15,2.11-3.63,12.47-1.58,18.46,2.28,6.66,6.29,9.73,10.71,8.22,4.43-1.52,5.71-6.4,3.43-13.06-3.64-10.64-7.87-15.22-12.56-13.61ZM52.51,353.3c-.62-1.43-1.63-2.73-2.77-3.82-1.02-.96-2.17-1.78-3.42-2.44-.21.17-.47.26-.73.27-.57,1.28-.98,2.63-1.19,4-.24,1.56-.24,3.21.15,4.73.32,1.44-1.76,1.94-2.13.51-.4-1.86-.33-3.74.02-5.58.35-1.79.99-3.51,1.86-5.1l-.66-2.3c-.31-1.19,1.35-1.76,1.84-.65l.9,2.16s.05.01.07.02c1.67.73,3.23,1.7,4.62,2.9,1.41,1.23,2.61,2.68,3.44,4.39.59,1.36-1.37,2.25-2,.9Z"/>
      <path class="cls-2" d="M27.83,345.42c-6.15,2.11-3.63,12.47-1.58,18.46,2.28,6.66,6.29,9.73,10.71,8.22s5.71-6.4,3.43-13.06c-3.64-10.64-7.87-15.22-12.56-13.61ZM38.82,357.77c.59,1.36-1.37,2.25-2,.9-.62-1.43-1.63-2.73-2.77-3.82-1.02-.96-2.17-1.78-3.42-2.44-.21.17-.47.26-.73.27-.57,1.28-.98,2.63-1.19,4-.24,1.56-.24,3.21.15,4.73.32,1.44-1.76,1.94-2.13.51-.4-1.86-.33-3.74.02-5.58.35-1.79.99-3.51,1.86-5.1l-.66-2.3c-.31-1.19,1.35-1.76,1.84-.65l.9,2.16s.05.01.07.02c1.67.73,3.23,1.7,4.62,2.9,1.41,1.23,2.61,2.68,3.44,4.39Z"/>
      <path class="cls-4" d="M54.51,352.4c-.82-1.71-2.03-3.16-3.44-4.39-1.39-1.21-2.95-2.18-4.62-2.9-.02-.01-.05-.02-.07-.02l-.9-2.16c-.49-1.11-2.15-.54-1.84.65l.66,2.3c-.86,1.59-1.5,3.3-1.86,5.1-.36,1.84-.42,3.72-.02,5.58.37,1.44,2.45.93,2.13-.51-.39-1.52-.39-3.16-.15-4.73.21-1.37.62-2.72,1.19-4,.26,0,.52-.11.73-.27,1.25.67,2.4,1.48,3.42,2.44,1.15,1.09,2.15,2.38,2.77,3.82.63,1.35,2.59.46,2-.9Z"/>
      <path class="cls-4" d="M43,338.49c-3.96,1.35-5.58,5.26-4.83,11.43-3.19-5.4-6.83-7.44-10.86-6.06-5.64,1.93-6.54,9.03-2.6,20.54,3.08,8.99,8.63,10.67,12.8,9.24,3.12-1.07,5.78-3.98,5.64-9.14,3.05,4.16,6.94,4.83,10.05,3.76,4.17-1.43,7.53-6.15,4.45-15.14-4-11.67-8.92-16.59-14.64-14.63ZM36.97,372.09c-4.43,1.52-8.43-1.56-10.71-8.22-2.05-5.99-4.57-16.35,1.58-18.46,4.69-1.61,8.92,2.97,12.56,13.61,2.28,6.66,1,11.54-3.43,13.06ZM52.66,366.72c-4.43,1.52-8.43-1.56-10.71-8.22-2.05-5.99-4.57-16.35,1.58-18.46,4.69-1.61,8.92,2.97,12.56,13.61,2.28,6.66,1,11.54-3.43,13.06Z"/>
      <path class="cls-4" d="M30.76,350.47s-.05-.02-.07-.02l-.9-2.16c-.49-1.11-2.15-.54-1.84.65l.66,2.3c-.86,1.59-1.5,3.3-1.86,5.1-.36,1.84-.42,3.72-.02,5.58.37,1.44,2.45.93,2.13-.51-.39-1.52-.39-3.16-.15-4.73.21-1.37.62-2.72,1.19-4,.26,0,.52-.11.73-.27,1.25.67,2.4,1.48,3.42,2.44,1.15,1.09,2.15,2.38,2.77,3.82.63,1.35,2.59.46,2-.9-.82-1.71-2.03-3.16-3.44-4.39-1.39-1.21-2.95-2.18-4.62-2.9Z"/>
      <g>
        <polygon class="cls-2" points="54.61 417.53 58.56 410.45 52.8 409.64 53.91 414.46 54.61 417.53"/>
        <polygon class="cls-2" points="59.28 409.09 60.8 405.94 51.83 404.7 52.48 408.14 59.28 409.09"/>
        <path class="cls-2" d="M53.56,419.41l-2.4-10.46s0-.02,0-.03l-.74-3.91-3.16,1.94,4.04,16.52,2.26-4.06Z"/>
        <polygon class="cls-2" points="45.9 407.44 42.81 408.03 38.79 436.73 43.54 437.39 50.27 425.31 45.9 407.44"/>
        <polygon class="cls-2" points="60.88 427.78 56.94 430.65 59.21 437.79 63.28 437.37 62.66 434.91 60.88 427.78"/>
        <polygon class="cls-2" points="62.72 426.91 62.23 427.24 63.6 432.74 66.6 430.03 62.72 426.91"/>
        <path class="cls-2" d="M55.18,430.92c.09-.07.19-.11.29-.13l-.06-.19c-.09-.29.01-.62.26-.8l5.22-3.81c.19-.14.44-.18.67-.1.02,0,.04.02.06.02l.73-.49c.26-.18.61-.16.86.03l3.07,2.47,2.28-16.26-2.81-1.28-11.97,21.64,1.41-1.11Z"/>
        <path class="cls-2" d="M64.14,434.2c.08.03.15.07.22.12l4.53,3.75,2.77-3.59-4.27-3.22-3.25,2.94Z"/>
        <path class="cls-2" d="M64.56,409.55l-2.53-2.86-1.68,3.5s-.01.03-.02.04l-6.91,12.38-1.76,3.15s0,0,0,0l-6.6,11.84,1.51.21c.04-.13.12-.25.23-.33l4.05-3.18,13.7-24.75Z"/>
        <polygon class="cls-2" points="64.87 436.61 64.5 436.3 64.63 436.84 64.87 436.61"/>
        <path class="cls-2" d="M55.91,432.17l-7.61,5.97,3.34,3.75,5.69-4.63c.05-.04.11-.07.17-.1l-1.59-5Z"/>
        <path class="cls-2" d="M64.54,438.62c-.09.05-.18.08-.28.09l-5.49.57c-.06,0-.12,0-.17,0-.27-.04-.5-.23-.59-.49l-.05-.17-.84.68,7.41,1.04.23-1.73c-.07.02-.15.03-.22.02Z"/>
        <path class="cls-4" d="M73.39,434.24c-.03-.19-.13-.36-.28-.48l-4.72-3.56c.02-.07.04-.15.03-.23,0-.21-.1-.41-.27-.54l-.57-.46,2.47-17.65s0-.03,0-.05c0-.02,0-.03,0-.05,0-.03,0-.06,0-.09,0-.01,0-.03,0-.04,0-.03-.01-.06-.03-.09,0-.01,0-.02-.01-.04-.01-.03-.03-.06-.04-.09,0-.01-.01-.02-.02-.04-.02-.03-.04-.05-.06-.07-.01-.01-.02-.02-.03-.03-.02-.02-.04-.04-.07-.06-.01,0-.02-.02-.04-.03-.03-.02-.05-.03-.08-.05,0,0-.02-.01-.02-.01l-3.77-1.71-3.48-3.94c-.16-.18-.4-.27-.64-.24,0,0,0,0-.01,0v-.07s-10.67-1.47-10.67-1.47c-.17-.03-.36,0-.51.09l-4.38,2.69-4.14.79s-.01,0-.02,0c-.02,0-.05.01-.07.02-.02,0-.05.02-.07.03-.02,0-.03.02-.05.03-.02.01-.05.03-.07.04-.01,0-.02.02-.04.03-.02.02-.05.04-.07.06,0,.01-.02.02-.03.03-.02.02-.04.05-.06.08,0,.01-.01.02-.02.03-.02.03-.03.06-.04.09,0,.01,0,.02-.01.03-.01.04-.02.07-.03.11,0,0,0,0,0,.01l-4.19,29.92c-.06.39.22.76.61.81l5.95.83,3.66.51,3.53,3.97c.12.13.27.21.44.23.19.03.39-.02.55-.15l3.58-2.91,9.45,1.33c.19.03.38-.02.54-.14.15-.12.25-.29.28-.48l.46-3.43,2.22,1.84c.1.09.23.14.36.16.06,0,.12,0,.18,0,.19-.02.37-.12.49-.28l3.67-4.76c.12-.15.17-.34.14-.54ZM63.6,432.74l-1.37-5.5.49-.33,3.88,3.12-2.99,2.71ZM63.28,437.37l-4.08.42-2.27-7.14,3.94-2.87,1.78,7.13.62,2.46ZM65.74,410.38l2.81,1.28-2.28,16.26-3.07-2.47c-.25-.2-.59-.21-.86-.03l-.73.49s-.04-.02-.06-.02c-.23-.08-.48-.05-.67.1l-5.22,3.81c-.25.18-.36.5-.26.8l.06.19c-.1.02-.2.07-.29.13l-1.41,1.11,11.97-21.64ZM60.8,405.94l-1.52,3.16-6.8-.95-.65-3.44,8.97,1.24ZM58.56,410.45l-3.95,7.08-.7-3.07-1.1-4.82,5.76.81ZM50.42,405.01l.74,3.91s0,.02,0,.03l2.4,10.46-2.26,4.06-4.04-16.52,3.16-1.94ZM43.54,437.39l-4.75-.67,4.02-28.69,3.09-.59,4.37,17.87-6.73,12.08ZM46.81,437.48c-.11.09-.19.2-.23.33l-1.51-.21,6.6-11.84s0,0,0,0l1.76-3.15,6.91-12.38s.01-.03.02-.04l1.68-3.5,2.53,2.86-13.7,24.75-4.05,3.18ZM51.64,441.9l-3.34-3.75,7.61-5.97,1.59,5c-.06.03-.12.06-.17.1l-5.69,4.63ZM57.12,439.29l.84-.68.05.17c.09.27.32.46.59.49.06,0,.12,0,.17,0l5.49-.57c.1-.01.2-.04.28-.09.07,0,.15,0,.22-.02l-.23,1.73-7.41-1.04ZM64.5,436.3l.37.31-.24.24-.14-.54ZM68.89,438.06l-4.53-3.75c-.07-.06-.14-.1-.22-.12l3.25-2.94,4.27,3.22-2.77,3.59Z"/>
      </g>
      <g>
        <path class="cls-2" d="M78.98,471.97l-8.79,2.09c-.6.14-1.22.17-1.81.1-.71-.09-1.39-.33-2.02-.72-.02-.01-.04-.02-.06-.03l-6.08-3.9-1.02.19c-.39.11-.75.59-.81,1.08l-.09.66c-.06.44.1.89.28,1,0,0,.02.01.02.02l.44.31,7.79,4.84c.23.14.31.46.17.71-.1.19-.3.28-.49.26-.06,0-.13-.03-.18-.07l-7.76-4.82-.14.41c-.12.36.01.77.32.96l7.13,4.57h0s0,0,.01,0c.27.14,1.06.42,1.6.17.26-.12.45-.36.57-.73.5-1.57-1.01-2.48-1.07-2.51l-7.47-4.56c-.23-.14-.31-.46-.17-.71.14-.25.44-.34.67-.2l7.45,4.55c.8.46,2.13,1.83,1.52,3.75-.11.34-.27.64-.47.87.19-.02.37-.05.56-.09l10.21-2.42c.82-.19,1.45-.92,1.56-1.81l.12-.93c.12-.91-.25-1.79-.96-2.29l-1.04-.74Z"/>
        <polygon class="cls-2" points="65.89 479.62 65.89 479.62 65.9 479.63 65.89 479.62 65.89 479.62"/>
        <path class="cls-2" d="M65.87,479.61s.01,0,.02,0c0,0-.01,0-.02,0h0Z"/>
        <path class="cls-2" d="M81.78,468.81l.12-.93c.12-.91-.25-1.79-.96-2.29l-7-4.98c-.53-.35-1.17-.45-1.79-.29,0,0-.02,0-.03,0l-12,2.24c-.39.11-.75.59-.81,1.08l-.09.66c-.06.44.1.89.28,1,0,0,.02.01.02.02l.44.31,7.79,4.84c.23.14.31.46.17.71-.14.25-.44.33-.67.19l-7.76-4.82-.14.41c-.12.36.01.77.32.96l.9.58,6.22,3.99h0s0,0,0,0c0,0,0,0,0,0,.26.13,1.05.43,1.6.18.26-.12.45-.36.57-.74.5-1.57-1.01-2.48-1.07-2.51l-7.47-4.56c-.23-.14-.31-.46-.17-.71.14-.25.44-.34.67-.2l7.46,4.55c.79.45,2.13,1.82,1.51,3.75-.11.34-.27.64-.47.87.19-.02.37-.05.56-.09l8.98-2.13s.01,0,.02,0l1.21-.29c.82-.19,1.45-.92,1.56-1.81Z"/>
        <path class="cls-2" d="M66.79,472.49s.01,0,.02,0c0,0-.01,0-.02,0h0Z"/>
        <polygon class="cls-2" points="66.82 472.5 66.81 472.5 66.81 472.5 66.82 472.5"/>
        <path class="cls-4" d="M82.75,468.93l.12-.93c.17-1.3-.36-2.56-1.37-3.28l-7.01-4.98s0,0-.01,0c-.75-.49-1.64-.64-2.51-.43l-12.01,2.24s-.02,0-.03,0c-.79.21-1.46,1.03-1.58,1.97l-.09.66c-.07.58.06,1.3.44,1.75-.01.02-.02.05-.03.08l-.21.61c-.25.75-.03,1.57.53,2.05-.79.21-1.44,1.04-1.56,1.97l-.09.66c-.08.58.06,1.3.44,1.75-.01.02-.03.05-.03.08l-.21.61c-.28.83.02,1.75.72,2.2l7.13,4.58s.04.02.06.03c.62.39,1.31.63,2.02.72.6.08,1.21.05,1.81-.1l10.21-2.42c1.22-.29,2.16-1.38,2.33-2.7l.12-.93c.17-1.3-.36-2.56-1.37-3.28l-.26-.19.1-.02c1.22-.29,2.16-1.38,2.33-2.7ZM65.87,479.61h0s.01,0,.02,0c0,0-.01,0-.02,0ZM65.89,479.62s0,0,0,0h0s0,0,0,0c0,0,0,0,0,0ZM80.98,475l-.12.93c-.11.89-.74,1.61-1.56,1.81l-10.21,2.42c-.19.04-.37.07-.56.09.2-.24.36-.53.47-.87.61-1.92-.72-3.29-1.52-3.75l-7.45-4.55c-.23-.14-.53-.05-.67.2-.14.25-.06.57.17.71l7.47,4.56c.06.04,1.58.94,1.07,2.51-.12.37-.31.61-.57.73-.54.25-1.33-.04-1.6-.17,0,0,0,0-.01,0h0s-7.13-4.57-7.13-4.57c-.31-.2-.44-.6-.32-.96l.14-.41,7.76,4.82c.06.04.12.06.18.07.19.02.38-.07.49-.26.14-.25.06-.57-.17-.71l-7.79-4.84-.44-.31s-.02-.01-.02-.02c-.18-.11-.34-.56-.28-1l.09-.66c.06-.49.43-.97.81-1.08l1.02-.19,6.08,3.9s.04.02.06.03c.62.39,1.31.63,2.02.72.6.08,1.21.05,1.81-.1l8.79-2.09,1.04.74c.71.5,1.07,1.38.96,2.29ZM66.79,472.49h0s.01,0,.02,0c0,0-.01,0-.02,0ZM80.22,470.62l-1.21.29s-.01,0-.02,0l-8.98,2.13c-.19.04-.37.07-.56.09.2-.24.36-.53.47-.87.62-1.92-.72-3.29-1.51-3.75l-7.46-4.55c-.23-.14-.53-.05-.67.2-.14.25-.06.57.17.71l7.47,4.56c.06.04,1.58.94,1.07,2.51-.12.37-.31.61-.57.74-.55.25-1.34-.04-1.6-.18,0,0,0,0,0,0,0,0,0,0,0,0,0,0,0,0,0,0,0,0,0,0,0,0h0s0,0,0,0l-6.22-3.99-.9-.58c-.31-.2-.44-.6-.32-.96l.14-.41,7.76,4.82c.23.14.53.06.67-.19.14-.25.06-.57-.17-.71l-7.79-4.84-.44-.31s-.02-.01-.02-.02c-.18-.11-.34-.56-.28-1l.09-.66c.06-.49.43-.97.81-1.08l12-2.24s.02,0,.03,0c.62-.16,1.25-.05,1.79.29l7,4.98c.71.5,1.07,1.38.96,2.29l-.12.93c-.11.89-.74,1.61-1.56,1.81Z"/>
      </g>
    </g>
  </g>
  <g>
    <circle class="cls-5" cx="36.21" cy="223.29" r="6.04"/>
    <circle class="cls-5" cx="27.94" cy="209.48" r="3.02"/>
  </g>
  <circle class="cls-5" cx="69.65" cy="278.81" r="6.04"/>
  <g>
    <circle class="cls-5" cx="26.58" cy="84.33" r="6.04"/>
    <circle class="cls-5" cx="22.29" cy="78.64" r="3.02"/>
  </g>
  <g>
    <circle class="cls-5" cx="68.3" cy="388.63" r="8.39"/>
    <circle class="cls-5" cx="74.26" cy="380.73" r="4.19"/>
  </g>
  <g>
    <circle class="cls-1" cx="69.62" cy="143.98" r="2.11"/>
    <circle class="cls-3" cx="73.55" cy="137.85" r="3.02"/>
  </g>
  <g>
    <circle class="cls-1" cx="28.37" cy="461.95" r="4.33"/>
    <circle class="cls-3" cx="34.56" cy="471.99" r="6.19"/>
  </g>
  <g>
    <circle class="cls-1" cx="25.51" cy="332.47" r="3.86"/>
    <circle class="cls-3" cx="32.69" cy="321.26" r="5.52"/>
  </g>
</svg>