<?xml version="1.0" encoding="UTF-8"?>
<svg id="_レイヤー_2" data-name="レイヤー 2" xmlns="http://www.w3.org/2000/svg" width="101.19" height="77.8" viewBox="0 0 101.19 77.8">
  <defs>
    <style>
      .cls-1 {
        fill: #fff;
        stroke-width: 0px;
      }
    </style>
  </defs>
  <g id="_レイヤー_1-2" data-name="レイヤー 1">
    <path class="cls-1" d="M14.51,77.8c-1.44,0-2.87-.64-3.82-1.87-1.64-2.11-1.26-5.15.85-6.79.06-.05,7.76-6.22,7.8-13.85.02-4.42-2.62-8.81-7.87-13.04C3.7,35.98-.16,29,0,21.52.26,9.49,11.17,1.29,11.63.95c2.15-1.59,5.18-1.13,6.77,1.01,1.59,2.14,1.14,5.17-1,6.76-.16.12-7.59,5.83-7.72,13.05-.07,4.32,2.57,8.67,7.87,12.95,7.68,6.2,11.53,13.16,11.47,20.7-.11,12.34-11.07,21-11.54,21.36-.88.69-1.93,1.02-2.97,1.02Z"/>
    <path class="cls-1" d="M50.6,77.8c-1.44,0-2.87-.64-3.82-1.87-1.64-2.11-1.26-5.15.85-6.79.06-.05,7.76-6.22,7.8-13.85.02-4.42-2.62-8.81-7.87-13.04-7.77-6.27-11.62-13.24-11.46-20.73.26-12.03,11.16-20.23,11.63-20.57,2.15-1.59,5.18-1.13,6.77,1.01,1.59,2.14,1.14,5.17-1,6.76-.16.12-7.59,5.83-7.72,13.05-.08,4.32,2.57,8.67,7.87,12.95,7.68,6.2,11.53,13.16,11.47,20.7-.11,12.34-11.07,21-11.54,21.36-.88.69-1.93,1.02-2.97,1.02Z"/>
    <path class="cls-1" d="M86.68,77.8c-1.44,0-2.87-.64-3.82-1.87-1.64-2.11-1.26-5.15.85-6.79.06-.05,7.76-6.22,7.8-13.85.02-4.42-2.62-8.81-7.87-13.04-7.76-6.27-11.62-13.24-11.46-20.73.26-12.03,11.16-20.23,11.63-20.57,2.15-1.59,5.18-1.13,6.77,1.01,1.58,2.14,1.14,5.17-1,6.76-.18.14-7.59,5.84-7.71,13.05-.08,4.32,2.57,8.67,7.87,12.95,7.68,6.2,11.53,13.16,11.47,20.7-.11,12.34-11.07,21-11.54,21.36-.88.69-1.93,1.02-2.97,1.02Z"/>
  </g>
</svg>